<mxfile host="app.diagrams.net" modified="2024-06-12T02:34:17.823Z" agent="Mozilla/5.0 (X11; Ubuntu; Linux x86_64; rv:126.0) Gecko/20100101 Firefox/126.0" version="24.4.13" etag="GImsGuBB2kcYDAQ3xweJ" type="github">
  <diagram name="第 1 页" id="8Qd7ySTzkjpI6-89Qnu8">
    <mxGraphModel>
      <root>
        <mxCell id="0" />
        <mxCell id="1" parent="0" />
      </root>
    </mxGraphModel>
  </diagram>
</mxfile>
